<svg width="45" height="44" viewBox="0 0 45 44" fill="none" xmlns="http://www.w3.org/2000/svg">
<path d="M44.5116 22C44.5116 9.84973 34.5474 0 22.2558 0C9.96426 0 0 9.84973 0 22C0 32.9808 8.13862 42.0823 18.7783 43.7328V28.3594H13.1275V22H18.7783V17.1531C18.7783 11.6394 22.101 8.59376 27.1847 8.59376C29.6197 8.59376 32.1666 9.02344 32.1666 9.02344V14.4375H29.3602C26.5955 14.4375 25.7333 16.1334 25.7333 17.8732V22H31.9058L30.9191 28.3594H25.7333V43.7328C36.373 42.0823 44.5116 32.9808 44.5116 22Z" fill="#1877F2"/>
<path d="M30.9191 28.3594L31.9059 22H25.7333V17.8731C25.7333 16.1334 26.5955 14.4375 29.3603 14.4375H32.1667V9.02343C32.1667 9.02343 29.6197 8.59375 27.1848 8.59375C22.101 8.59375 18.7784 11.6394 18.7784 17.1531V22H13.1275V28.3594H18.7784V43.7327C19.9288 43.9109 21.0915 44.0003 22.2559 44C23.4389 44 24.6003 43.9085 25.7333 43.7327V28.3594H30.9191Z" fill="white"/>
</svg>
