<svg width="45" height="44" viewBox="0 0 45 44" fill="none" xmlns="http://www.w3.org/2000/svg">
<ellipse opacity="0.7" cx="22.2559" cy="22" rx="22.2558" ry="22" fill="url(#paint0_linear_1_148)"/>
<path d="M28.8696 16.6624C28.8696 15.9977 28.3246 15.461 27.6547 15.461C26.9848 15.461 26.4393 15.9977 26.4393 16.6624C26.4393 17.3247 26.9848 17.8614 27.6547 17.8614C28.3246 17.8614 28.8696 17.3247 28.8696 16.6624Z" fill="white"/>
<path d="M30.489 26.0404C30.444 27.0154 30.279 27.5452 30.142 27.8971C29.958 28.3636 29.7386 28.6972 29.3826 29.0471C29.0306 29.397 28.6932 29.6135 28.2212 29.7933C27.8653 29.9308 27.3273 30.0943 26.3409 30.1408C25.2745 30.1872 24.9585 30.1971 22.2543 30.1971C19.5526 30.1971 19.2341 30.1872 18.1677 30.1408C17.1813 30.0943 16.6459 29.9308 16.2899 29.7933C15.8154 29.6135 15.4805 29.397 15.1265 29.0471C14.77 28.6972 14.5506 28.3636 14.3691 27.8971C14.2321 27.5452 14.0646 27.0154 14.0221 26.0404C13.9701 24.9862 13.9606 24.6689 13.9606 22.0012C13.9606 19.3281 13.9701 19.0133 14.0221 17.9591C14.0646 16.9841 14.2321 16.4548 14.3691 16.0999C14.5506 15.6339 14.77 15.3023 15.1265 14.9524C15.4805 14.603 15.8154 14.386 16.2899 14.2042C16.6459 14.0663 17.1813 13.9052 18.1677 13.8587C19.2341 13.8122 19.5526 13.8004 22.2543 13.8004C24.9585 13.8004 25.2745 13.8122 26.3409 13.8587C27.3273 13.9052 27.8653 14.0663 28.2212 14.2042C28.6932 14.386 29.0306 14.603 29.3826 14.9524C29.7386 15.3023 29.958 15.6339 30.142 16.0999C30.279 16.4548 30.444 16.9841 30.489 17.9591C30.5385 19.0133 30.5505 19.3281 30.5505 22.0012C30.5505 24.6689 30.5385 24.9862 30.489 26.0404ZM32.3103 17.8771C32.2608 16.8116 32.0908 16.0836 31.8384 15.4496C31.5814 14.7918 31.2369 14.2343 30.673 13.6768C30.1115 13.1219 29.5476 12.7813 28.8822 12.5244C28.2382 12.2773 27.5043 12.1072 26.4259 12.0608C25.3475 12.0094 25.003 12 22.2543 12C19.5081 12 19.1611 12.0094 18.0827 12.0608C17.0068 12.1072 16.2734 12.2773 15.6264 12.5244C14.9635 12.7813 14.3996 13.1219 13.8381 13.6768C13.2742 14.2343 12.9297 14.7918 12.6702 15.4496C12.4202 16.0836 12.2503 16.8116 12.1983 17.8771C12.1513 18.9431 12.1393 19.2841 12.1393 22.0012C12.1393 24.7159 12.1513 25.0564 12.1983 26.1224C12.2503 27.1859 12.4202 27.9134 12.6702 28.5504C12.9297 29.2058 13.2742 29.7657 13.8381 30.3207C14.3996 30.8757 14.9635 31.2187 15.6264 31.4752C16.2734 31.7222 17.0068 31.8903 18.0827 31.9392C19.1611 31.9881 19.5081 32 22.2543 32C25.003 32 25.3475 31.9881 26.4259 31.9392C27.5043 31.8903 28.2382 31.7222 28.8822 31.4752C29.5476 31.2187 30.1115 30.8757 30.673 30.3207C31.2369 29.7657 31.5814 29.2058 31.8384 28.5504C32.0908 27.9134 32.2608 27.1859 32.3103 26.1224C32.3598 25.0564 32.3718 24.7159 32.3718 22.0012C32.3718 19.2841 32.3598 18.9431 32.3103 17.8771Z" fill="white"/>
<path d="M22.254 25.3317C20.3927 25.3317 18.8823 23.8411 18.8823 22.0012C18.8823 20.1583 20.3927 18.6659 22.254 18.6659C24.1159 18.6659 25.6282 20.1583 25.6282 22.0012C25.6282 23.8411 24.1159 25.3317 22.254 25.3317ZM22.254 16.863C19.3848 16.863 17.061 19.165 17.061 22.0012C17.061 24.835 19.3848 27.1346 22.254 27.1346C25.1232 27.1346 27.4495 24.835 27.4495 22.0012C27.4495 19.165 25.1232 16.863 22.254 16.863Z" fill="white"/>
<defs>
<linearGradient id="paint0_linear_1_148" x1="0.40155" y1="0.400136" x2="40.37" y2="40.8334" gradientUnits="userSpaceOnUse">
<stop stop-color="#FFD521"/>
<stop offset="0.05" stop-color="#FFD521"/>
<stop offset="0.501119" stop-color="#F50000"/>
<stop offset="0.95" stop-color="#B900B4"/>
<stop offset="0.950079" stop-color="#B900B4"/>
<stop offset="1" stop-color="#B900B4"/>
</linearGradient>
</defs>
</svg>
