<svg width="52" height="52" viewBox="0 0 52 52" fill="none" xmlns="http://www.w3.org/2000/svg">
<g filter="url(#filter0_d_8_46)">
<circle cx="26" cy="26" r="18" fill="white"/>
</g>
<path d="M20.62 25.2666C22.06 28.0365 24.38 30.2976 27.21 31.7168L29.41 29.5635C29.68 29.2992 30.08 29.2111 30.43 29.3286C31.55 29.6907 32.76 29.8865 34 29.8865C34.55 29.8865 35 30.3269 35 30.8653V34.2812C35 34.8196 34.55 35.26 34 35.26C24.61 35.26 17 27.8114 17 18.6205C17 18.0822 17.45 17.6418 18 17.6418H21.5C22.05 17.6418 22.5 18.0822 22.5 18.6205C22.5 19.844 22.7 21.0186 23.07 22.1148C23.18 22.4574 23.1 22.8391 22.82 23.1132L20.62 25.2666Z" fill="black"/>
<defs>
<filter id="filter0_d_8_46" x="0" y="0" width="52" height="52" filterUnits="userSpaceOnUse" color-interpolation-filters="sRGB">
<feFlood flood-opacity="0" result="BackgroundImageFix"/>
<feColorMatrix in="SourceAlpha" type="matrix" values="0 0 0 0 0 0 0 0 0 0 0 0 0 0 0 0 0 0 127 0" result="hardAlpha"/>
<feMorphology radius="2" operator="dilate" in="SourceAlpha" result="effect1_dropShadow_8_46"/>
<feOffset/>
<feGaussianBlur stdDeviation="3"/>
<feComposite in2="hardAlpha" operator="out"/>
<feColorMatrix type="matrix" values="0 0 0 0 0 0 0 0 0 0 0 0 0 0 0 0 0 0 0.25 0"/>
<feBlend mode="normal" in2="BackgroundImageFix" result="effect1_dropShadow_8_46"/>
<feBlend mode="normal" in="SourceGraphic" in2="effect1_dropShadow_8_46" result="shape"/>
</filter>
</defs>
</svg>
