<svg width="45" height="44" viewBox="0 0 45 44" fill="none" xmlns="http://www.w3.org/2000/svg">
<ellipse cx="22.2559" cy="22" rx="22.2558" ry="22" fill="#03A9F4"/>
<path d="M17.7518 32C26.9142 32 31.9247 24.3062 31.9247 17.6344C31.9247 17.4159 31.9203 17.1984 31.9106 16.9818C32.8855 16.2668 33.7269 15.3815 34.3954 14.3673C33.5029 14.7695 32.5424 15.0402 31.5349 15.1622C32.5632 14.5371 33.3528 13.5484 33.7253 12.3696C32.7474 12.9576 31.6777 13.3721 30.5622 13.5952C29.6532 12.6138 28.3592 12 26.9262 12C24.1753 12 21.9446 14.2611 21.9446 17.0483C21.9446 17.4445 21.9884 17.8299 22.0739 18.1995C17.9338 17.9884 14.2628 15.9793 11.8059 12.9243C11.3634 13.6948 11.1306 14.5705 11.1314 15.462C11.1314 17.2137 12.0108 18.7601 13.3481 19.6647C12.5571 19.6403 11.7834 19.4237 11.0921 19.0332C11.0914 19.0545 11.0914 19.0751 11.0914 19.0977C11.0914 21.5429 12.8084 23.5845 15.0877 24.0471C14.6596 24.1653 14.2179 24.225 13.7742 24.2248C13.46 24.2246 13.1465 24.1941 12.838 24.1337C13.4722 26.1398 15.3111 27.5997 17.4913 27.6404C15.7864 28.9949 13.6387 29.8016 11.3045 29.8016C10.9029 29.8016 10.5063 29.7785 10.1163 29.7318C12.3209 31.164 14.9386 31.9998 17.7521 31.9998" fill="white"/>
</svg>
