<svg width="36" height="36" viewBox="0 0 36 36" fill="none" xmlns="http://www.w3.org/2000/svg">
<path d="M9.45425 30.4149L10.0428 30.7007C12.4952 32.1291 15.2417 32.7958 17.9884 32.7958C26.6205 32.7958 33.6831 25.9389 33.6831 17.5584C33.6831 13.5586 32.0155 9.65396 29.0728 6.7969C26.13 3.93984 22.2062 2.32092 17.9884 2.32092C9.35623 2.32092 2.29345 9.17776 2.39161 17.6536C2.39161 20.5106 3.27444 23.2725 4.74577 25.6532L5.13811 26.2247L3.56876 31.8435L9.45425 30.4149Z" fill="#00E676"/>
<path d="M30.801 5.14263C27.4659 1.80951 22.8556 0 18.1471 0C8.14178 0 0.0981547 7.90441 0.196169 17.523C0.196169 20.5705 1.079 23.5229 2.55048 26.1894L0 35.2366L9.51496 32.8558C12.1635 34.2844 15.1061 34.951 18.0491 34.951C27.9564 34.951 36 27.0465 36 17.428C36 12.7614 34.136 8.3806 30.801 5.14263ZM18.1471 31.9988C15.4986 31.9988 12.8501 31.3323 10.594 29.999L10.0055 29.7132L4.31614 31.1417L5.78747 25.7134L5.39513 25.142C1.079 18.3804 3.13898 9.42816 10.2016 5.23779C17.2643 1.04756 26.3869 3.04752 30.703 9.90436C35.019 16.7612 32.959 25.618 25.8965 29.8084C23.6402 31.2368 20.8937 31.9987 18.1471 31.9987V31.9988ZM26.7792 21.4279L25.7002 20.9517C25.7002 20.9517 24.1309 20.2851 23.1499 19.8089C23.0517 19.8089 22.9537 19.7136 22.8556 19.7136C22.5612 19.7136 22.3651 19.8089 22.1689 19.9042C22.1689 19.9042 22.0709 19.9993 20.6976 21.5231C20.5994 21.7135 20.4032 21.8088 20.2071 21.8088H20.1089C20.0109 21.8088 19.8147 21.7135 19.7166 21.6184L19.2261 21.4279C18.1471 20.9517 17.1662 20.3802 16.3814 19.6184C16.1853 19.428 15.8909 19.2375 15.6948 19.0471C15.0081 18.3804 14.3214 17.6185 13.8311 16.7613L13.7329 16.5709C13.6349 16.4756 13.6349 16.3804 13.5368 16.19C13.5368 15.9995 13.5368 15.8091 13.6349 15.7138C13.6349 15.7138 14.0273 15.2376 14.3214 14.952C14.5178 14.7614 14.6158 14.4758 14.8119 14.2853C15.0081 13.9996 15.1063 13.6187 15.0081 13.3329C14.9101 12.8567 13.7329 10.2854 13.4388 9.71405C13.2424 9.4283 13.0464 9.33314 12.7521 9.23785H11.6731C11.4768 9.23785 11.2808 9.33314 11.0845 9.33314L10.9863 9.4283C10.7901 9.52359 10.594 9.71405 10.3978 9.80921C10.2016 9.99979 10.1035 10.1901 9.9073 10.3807C9.22064 11.2378 8.8283 12.2854 8.8283 13.3329C8.8283 14.0947 9.02447 14.8567 9.31879 15.5233L9.41695 15.8091C10.2998 17.6185 11.4768 19.2375 13.0464 20.666L13.4388 21.0469C13.7329 21.3326 14.0273 21.5231 14.2234 21.8087C16.2834 23.523 18.6376 24.761 21.2861 25.4277C21.5804 25.5229 21.9727 25.5229 22.2671 25.6182H23.2479C23.7384 25.6182 24.3269 25.4277 24.7194 25.2372C25.0136 25.0468 25.2097 25.0468 25.4059 24.8563L25.6022 24.6658C25.7984 24.4753 25.9945 24.3801 26.1907 24.1897C26.3869 23.9992 26.5831 23.8088 26.6812 23.6182C26.8774 23.2373 26.9754 22.7611 27.0735 22.285V21.6184C27.0735 21.6184 26.9754 21.5231 26.7792 21.4279Z" fill="white"/>
</svg>
