<svg width="178" height="51" viewBox="0 0 178 51" fill="none" xmlns="http://www.w3.org/2000/svg">
<path d="M28.6641 19.5234C28.6641 22.0703 28.3828 24.2578 27.8203 26.0859C27.2578 27.9141 26.5156 29.4688 25.5938 30.75C24.6719 32.0156 23.625 33.0391 22.4531 33.8203C21.2812 34.5859 20.0859 35.1875 18.8672 35.625C17.6641 36.0469 16.4844 36.3281 15.3281 36.4688C14.1719 36.6094 13.1484 36.6797 12.2578 36.6797C10.7422 36.6797 9.44531 36.625 8.36719 36.5156C7.30469 36.4219 6.42188 36.375 5.71875 36.375C4.92188 36.375 4.03906 36.3906 3.07031 36.4219C2.10156 36.4531 1.07812 36.5156 0 36.6094C0.421875 35.8438 0.789062 34.9922 1.10156 34.0547C1.42969 33.1016 1.71094 32.1094 1.94531 31.0781C2.17969 30.0469 2.375 29.0078 2.53125 27.9609C2.70312 26.8984 2.84375 25.875 2.95312 24.8906C3.20312 22.5781 3.34375 20.2031 3.375 17.7656C3.34375 15.3438 3.22656 13.0703 3.02344 10.9453C2.92969 10.0391 2.8125 9.13281 2.67188 8.22656C2.54688 7.30469 2.39062 6.4375 2.20312 5.625C2.01562 4.79688 1.78906 4.05469 1.52344 3.39844C1.27344 2.74219 0.976562 2.21875 0.632812 1.82812C1.78906 2.01562 2.88281 2.14062 3.91406 2.20312C4.96094 2.26563 5.88281 2.29688 6.67969 2.29688C7.19531 2.29688 7.69531 2.28125 8.17969 2.25C8.66406 2.21875 9.16406 2.1875 9.67969 2.15625C10.1953 2.125 10.7422 2.09375 11.3203 2.0625C11.9141 2.03125 12.5781 2.01562 13.3125 2.01562C14.375 2.01562 15.4922 2.09375 16.6641 2.25C17.8516 2.39062 19.0078 2.67969 20.1328 3.11719C21.2734 3.55469 22.3594 4.17188 23.3906 4.96875C24.4219 5.76562 25.3281 6.8125 26.1094 8.10938C26.8906 9.40625 27.5078 10.9922 27.9609 12.8672C28.4297 14.7266 28.6641 16.9453 28.6641 19.5234ZM17.2031 19.0078C17.2031 17.1797 17.1484 15.6562 17.0391 14.4375C16.9297 13.2188 16.7656 12.2422 16.5469 11.5078C16.3438 10.7578 16.0859 10.2266 15.7734 9.91406C15.4609 9.60156 15.1016 9.44531 14.6953 9.44531C14.3359 9.44531 14.0078 9.63281 13.7109 10.0078C13.4297 10.3672 13.1875 10.9531 12.9844 11.7656C12.7812 12.5781 12.625 13.625 12.5156 14.9062C12.4062 16.1719 12.3516 17.7109 12.3516 19.5234C12.3516 21.4297 12.3984 23.0234 12.4922 24.3047C12.6016 25.5703 12.75 26.5859 12.9375 27.3516C13.1406 28.1172 13.3828 28.6641 13.6641 28.9922C13.9609 29.3047 14.3047 29.4609 14.6953 29.4609C15.4609 29.4609 16.0703 28.625 16.5234 26.9531C16.9766 25.2812 17.2031 22.6328 17.2031 19.0078ZM51.1641 14.3438C51.1641 15.5156 50.9922 16.6562 50.6484 17.7656C50.3203 18.875 49.7344 19.8594 48.8906 20.7188C48.0469 21.5781 46.9062 22.2656 45.4688 22.7812C44.0469 23.2969 42.2344 23.5547 40.0312 23.5547C40.0938 24.3203 40.25 24.9609 40.5 25.4766C40.7656 25.9922 41.0781 26.4062 41.4375 26.7188C41.7969 27.0312 42.1797 27.2656 42.5859 27.4219C42.9922 27.5781 43.3672 27.6875 43.7109 27.75C44.0547 27.8125 44.3438 27.8438 44.5781 27.8438C44.8125 27.8438 44.9297 27.8438 44.9297 27.8438C45.8984 27.7344 46.7656 27.4844 47.5312 27.0938C47.8594 26.9375 48.1797 26.7422 48.4922 26.5078C48.8047 26.2578 49.0859 25.9688 49.3359 25.6406C49.6016 25.2969 49.8125 24.9141 49.9688 24.4922C50.1406 24.0547 50.2422 23.5547 50.2734 22.9922C50.6797 24.0078 50.9609 24.9609 51.1172 25.8516C51.2891 26.7266 51.375 27.5469 51.375 28.3125C51.375 29.7188 51.1172 31.0156 50.6016 32.2031C50.1016 33.375 49.4062 34.3906 48.5156 35.25C47.625 36.1094 46.5625 36.7734 45.3281 37.2422C44.1094 37.7266 42.7812 37.9688 41.3438 37.9688C39.9375 37.9688 38.5781 37.7266 37.2656 37.2422C35.9688 36.7578 34.8125 35.9922 33.7969 34.9453C32.7969 33.8828 31.9922 32.5078 31.3828 30.8203C30.7891 29.1328 30.4922 27.0859 30.4922 24.6797C30.4922 22.0703 30.8672 19.7578 31.6172 17.7422C32.3672 15.7266 33.375 14.0391 34.6406 12.6797C35.9062 11.3047 37.3672 10.2656 39.0234 9.5625C40.6953 8.84375 42.4453 8.48438 44.2734 8.48438C45.1797 8.48438 46.0469 8.58594 46.875 8.78906C47.7188 8.99219 48.4531 9.32812 49.0781 9.79688C49.7188 10.2656 50.2266 10.875 50.6016 11.625C50.9766 12.3594 51.1641 13.2656 51.1641 14.3438ZM39.9375 19.6875C40.375 19.6719 40.8828 19.5859 41.4609 19.4297C42.0391 19.2578 42.5859 19.0234 43.1016 18.7266C43.6172 18.4297 44.0469 18.0625 44.3906 17.625C44.75 17.1875 44.9297 16.6875 44.9297 16.125C44.9297 15.7656 44.8047 15.4766 44.5547 15.2578C44.3047 15.0391 43.9844 14.9297 43.5938 14.9297C43.0469 14.9297 42.5547 15.0859 42.1172 15.3984C41.6953 15.7109 41.3281 16.1016 41.0156 16.5703C40.7188 17.0391 40.4766 17.5547 40.2891 18.1172C40.1016 18.6797 39.9844 19.2031 39.9375 19.6875ZM77.5547 36.6094C77.0703 36.5312 76.5391 36.4766 75.9609 36.4453C75.3828 36.4297 74.7812 36.4219 74.1562 36.4219C73.4062 36.4219 72.6406 36.4375 71.8594 36.4688C71.0938 36.5156 70.3438 36.5703 69.6094 36.6328C68.875 36.6953 68.1797 36.7656 67.5234 36.8438C66.8672 36.9219 66.2969 36.9922 65.8125 37.0547C66.4844 34.7891 67 32.3672 67.3594 29.7891C67.7344 27.2109 67.9219 24.3516 67.9219 21.2109C67.9219 20.9766 67.9141 20.6641 67.8984 20.2734C67.8984 19.8828 67.8828 19.4609 67.8516 19.0078C67.8203 18.5547 67.7656 18.1016 67.6875 17.6484C67.625 17.1797 67.5234 16.7578 67.3828 16.3828C67.2578 16.0078 67.0938 15.7031 66.8906 15.4688C66.6875 15.2344 66.4375 15.1172 66.1406 15.1172C65.7031 15.1172 65.2734 15.2734 64.8516 15.5859C64.4453 15.8984 64.0781 16.3125 63.75 16.8281C63.4375 17.3438 63.1797 17.9375 62.9766 18.6094C62.7891 19.2812 62.6953 19.9766 62.6953 20.6953C62.6953 21.9922 62.7266 23.3125 62.7891 24.6562C62.8516 25.9844 62.9531 27.3047 63.0938 28.6172C63.2344 29.9297 63.4141 31.2188 63.6328 32.4844C63.8516 33.7344 64.125 34.9219 64.4531 36.0469C64.1875 36.0312 63.875 36.0078 63.5156 35.9766C63.2031 35.9609 62.8359 35.9453 62.4141 35.9297C61.9922 35.9141 61.5078 35.9062 60.9609 35.9062C59.9453 35.9062 58.7734 35.9531 57.4453 36.0469C56.1172 36.125 54.6797 36.2812 53.1328 36.5156C53.3203 35.6406 53.4844 34.5703 53.625 33.3047C53.7656 32.0391 53.8828 30.6641 53.9766 29.1797C54.0703 27.6953 54.1406 26.1484 54.1875 24.5391C54.25 22.9141 54.2812 21.3125 54.2812 19.7344C54.2812 18.5625 54.2656 17.4141 54.2344 16.2891C54.2031 15.1641 54.1562 14.1016 54.0938 13.1016C54.0469 12.1016 53.9766 11.1797 53.8828 10.3359C53.7891 9.49219 53.6797 8.76562 53.5547 8.15625C54.8203 8.375 55.9922 8.53125 57.0703 8.625C58.1484 8.70312 59.125 8.74219 60 8.74219C60.5625 8.74219 61.0625 8.73438 61.5 8.71875C61.9531 8.6875 62.3359 8.65625 62.6484 8.625C63.0234 8.57812 63.3516 8.53125 63.6328 8.48438C63.5391 8.96875 63.4453 9.48438 63.3516 10.0312C63.2734 10.5781 63.1953 11.1719 63.1172 11.8125C63.6328 11.1562 64.1797 10.5859 64.7578 10.1016C65.3359 9.60156 65.9141 9.1875 66.4922 8.85938C67.0859 8.53125 67.6719 8.28906 68.25 8.13281C68.8281 7.96094 69.375 7.875 69.8906 7.875C71.0156 7.875 71.9844 8.10938 72.7969 8.57812C73.625 9.03125 74.3047 9.75 74.8359 10.7344C75.3828 11.7188 75.7891 12.9766 76.0547 14.5078C76.3203 16.0391 76.4531 17.875 76.4531 20.0156C76.4531 21.4844 76.4531 22.9766 76.4531 24.4922C76.4688 26.0078 76.5078 27.4922 76.5703 28.9453C76.6328 30.3984 76.7422 31.7812 76.8984 33.0938C77.0547 34.3906 77.2734 35.5625 77.5547 36.6094ZM97.875 36.0469C97.5156 36.0156 97.1016 35.9844 96.6328 35.9531C96.2266 35.9219 95.75 35.8984 95.2031 35.8828C94.6562 35.8672 94.0391 35.8594 93.3516 35.8594C92.1953 35.8594 90.8906 35.9062 89.4375 36C88 36.0781 86.4766 36.2344 84.8672 36.4688C85.4141 34.1562 85.8281 31.9297 86.1094 29.7891C86.3906 27.6484 86.6016 25.7422 86.7422 24.0703C86.8984 22.1172 86.9922 20.2812 87.0234 18.5625C87.0234 17.8281 87.0078 17.0234 86.9766 16.1484C86.9453 15.3984 86.9062 14.5312 86.8594 13.5469C86.8125 12.5469 86.75 11.4687 86.6719 10.3125C85.9375 11.0156 85.2031 11.7734 84.4688 12.5859C83.75 13.3828 83.0547 14.2188 82.3828 15.0938C81.7109 15.9531 81.0781 16.8281 80.4844 17.7188C79.9062 18.6094 79.3984 19.4844 78.9609 20.3438L79.5234 2.4375C80.9922 2.60937 82.5391 2.74219 84.1641 2.83594C85.8047 2.92969 87.4766 2.97656 89.1797 2.97656C91.6172 2.97656 94.0312 2.89062 96.4219 2.71875C98.8125 2.54688 101.008 2.29688 103.008 1.96875L103.875 20.0625C102.75 17.9219 101.5 15.9141 100.125 14.0391C98.7656 12.1484 97.3125 10.5703 95.7656 9.30469C95.6406 10.3672 95.5469 11.4844 95.4844 12.6562C95.4375 13.8125 95.4141 15 95.4141 16.2188C95.4141 17.7969 95.4609 19.4219 95.5547 21.0938C95.6641 22.75 95.8125 24.4219 96 26.1094C96.2031 27.7969 96.4609 29.4766 96.7734 31.1484C97.0859 32.8203 97.4531 34.4531 97.875 36.0469ZM105.117 36.4688C105.398 35.4219 105.641 34.2109 105.844 32.8359C106.047 31.4453 106.211 29.9609 106.336 28.3828C106.461 26.7891 106.547 25.1328 106.594 23.4141C106.656 21.6953 106.688 19.9688 106.688 18.2344C106.688 16.3594 106.656 14.5234 106.594 12.7266C106.531 10.9141 106.445 9.21875 106.336 7.64062C106.242 6.0625 106.125 4.64844 105.984 3.39844C105.844 2.13281 105.695 1.10937 105.539 0.328125C105.82 0.375 106.148 0.414063 106.523 0.445312C106.836 0.476562 107.211 0.507813 107.648 0.539062C108.102 0.554688 108.617 0.5625 109.195 0.5625C110.055 0.5625 111.023 0.523437 112.102 0.445312C113.195 0.367188 114.367 0.21875 115.617 0C115.477 0.296875 115.344 0.734375 115.219 1.3125C115.109 1.875 115.008 2.53125 114.914 3.28125C114.82 4.03125 114.742 4.84375 114.68 5.71875C114.617 6.59375 114.562 7.47656 114.516 8.36719C114.469 9.24219 114.43 10.1094 114.398 10.9688C114.367 11.8125 114.344 12.5859 114.328 13.2891C114.969 11.8984 115.82 10.8125 116.883 10.0312C117.961 9.23438 119.32 8.83594 120.961 8.83594C121.32 8.83594 121.773 8.90625 122.32 9.04688C122.883 9.1875 123.469 9.44531 124.078 9.82031C124.703 10.1953 125.32 10.7109 125.93 11.3672C126.555 12.0078 127.109 12.8359 127.594 13.8516C128.094 14.8516 128.492 16.0625 128.789 17.4844C129.102 18.8906 129.258 20.5469 129.258 22.4531C129.258 25.2656 128.977 27.625 128.414 29.5312C127.852 31.4219 127.133 32.9453 126.258 34.1016C125.398 35.2422 124.438 36.0547 123.375 36.5391C122.328 37.0391 121.312 37.2891 120.328 37.2891C119.609 37.2891 118.922 37.0859 118.266 36.6797C117.609 36.2734 117.016 35.75 116.484 35.1094C115.953 34.4688 115.484 33.7422 115.078 32.9297C114.688 32.1172 114.391 31.2969 114.188 30.4688C114.234 30.7969 114.297 31.2812 114.375 31.9219C114.469 32.5469 114.562 33.1953 114.656 33.8672C114.75 34.5234 114.844 35.125 114.938 35.6719C115.047 36.2188 115.148 36.5703 115.242 36.7266C114.258 36.5547 113.258 36.4375 112.242 36.375C111.242 36.3125 110.305 36.2812 109.43 36.2812C108.789 36.2812 108.211 36.2891 107.695 36.3047C107.18 36.3203 106.727 36.3438 106.336 36.375C105.883 36.4062 105.477 36.4375 105.117 36.4688ZM114.656 22.9453V24.3281C114.656 24.75 114.68 25.1797 114.727 25.6172C114.773 26.0547 114.875 26.4531 115.031 26.8125C115.203 27.1719 115.445 27.4688 115.758 27.7031C116.07 27.9219 116.492 28.0312 117.023 28.0312C117.398 28.0312 117.719 27.9219 117.984 27.7031C118.25 27.4688 118.469 27.1719 118.641 26.8125C118.812 26.4531 118.953 26.0469 119.062 25.5938C119.172 25.125 119.25 24.6641 119.297 24.2109C119.344 23.7578 119.375 23.3203 119.391 22.8984C119.406 22.4766 119.414 22.125 119.414 21.8438C119.414 21.4219 119.391 20.8516 119.344 20.1328C119.312 19.4141 119.227 18.7109 119.086 18.0234C118.945 17.3203 118.727 16.7188 118.43 16.2188C118.148 15.7031 117.758 15.4453 117.258 15.4453C116.883 15.4453 116.555 15.5859 116.273 15.8672C116.008 16.1484 115.773 16.5156 115.57 16.9688C115.383 17.4062 115.227 17.9062 115.102 18.4688C114.992 19.0156 114.898 19.5703 114.82 20.1328C114.758 20.6797 114.711 21.2031 114.68 21.7031C114.664 22.2031 114.656 22.6172 114.656 22.9453ZM152.438 9.11719C152.297 9.82031 152.164 10.6406 152.039 11.5781C151.93 12.5156 151.828 13.5312 151.734 14.625C151.656 15.7031 151.594 16.8359 151.547 18.0234C151.5 19.1953 151.477 20.3672 151.477 21.5391C151.477 21.9297 151.484 22.3203 151.5 22.7109C151.516 23.0859 151.523 23.4531 151.523 23.8125C151.523 24.5781 151.477 25.4453 151.383 26.4141C151.305 27.3828 151.133 28.375 150.867 29.3906C150.617 30.3906 150.266 31.375 149.812 32.3438C149.359 33.3125 148.758 34.1719 148.008 34.9219C147.273 35.6719 146.375 36.2734 145.312 36.7266C144.25 37.1953 142.992 37.4297 141.539 37.4297C140.289 37.4297 139.18 37.2656 138.211 36.9375C137.258 36.6094 136.422 36.1641 135.703 35.6016C135 35.0234 134.406 34.3438 133.922 33.5625C133.438 32.7812 133.047 31.9453 132.75 31.0547C132.453 30.1484 132.234 29.2031 132.094 28.2188C131.969 27.2344 131.906 26.2578 131.906 25.2891C131.906 25.0547 131.906 24.9141 131.906 24.8672C131.922 24.8047 131.93 24.7656 131.93 24.75C131.93 24.7344 131.938 24.7109 131.953 24.6797C131.969 24.6328 131.977 24.5078 131.977 24.3047C131.977 24.1016 131.977 23.7812 131.977 23.3438C131.992 22.9062 132 22.2891 132 21.4922C132 20.5547 131.984 19.5 131.953 18.3281C131.922 17.1406 131.852 15.9844 131.742 14.8594C131.648 13.7188 131.508 12.6875 131.32 11.7656C131.133 10.8438 130.891 10.1719 130.594 9.75C131.859 9.96875 133.047 10.1172 134.156 10.1953C135.281 10.2734 136.305 10.3125 137.227 10.3125C137.836 10.3125 138.383 10.3047 138.867 10.2891C139.367 10.2578 139.797 10.2266 140.156 10.1953C140.562 10.1641 140.93 10.125 141.258 10.0781C140.945 11.6094 140.641 13.3516 140.344 15.3047C140.062 17.2422 139.922 19.4688 139.922 21.9844C139.922 22.5625 139.945 23.1641 139.992 23.7891C140.055 24.4141 140.156 24.9922 140.297 25.5234C140.438 26.0391 140.625 26.4688 140.859 26.8125C141.109 27.1406 141.422 27.3047 141.797 27.3047C142.266 27.3047 142.633 27.1484 142.898 26.8359C143.164 26.5234 143.359 26.1172 143.484 25.6172C143.625 25.1016 143.703 24.5312 143.719 23.9062C143.75 23.2812 143.766 22.6562 143.766 22.0312C143.75 20 143.688 18.1016 143.578 16.3359C143.531 15.5859 143.469 14.8281 143.391 14.0625C143.328 13.2969 143.25 12.5781 143.156 11.9062C143.062 11.2188 142.953 10.6094 142.828 10.0781C142.703 9.53125 142.562 9.10156 142.406 8.78906C143.672 9.00781 144.844 9.15625 145.922 9.23438C147 9.3125 147.961 9.35156 148.805 9.35156C149.367 9.35156 149.867 9.34375 150.305 9.32812C150.758 9.29688 151.141 9.26562 151.453 9.23438C151.828 9.20313 152.156 9.16406 152.438 9.11719ZM177.422 9.21094C177.25 9.86719 177.102 10.6563 176.977 11.5781C176.867 12.5 176.766 13.4922 176.672 14.5547C176.578 15.6172 176.5 16.7266 176.438 17.8828C176.391 19.0391 176.344 20.1641 176.297 21.2578C176.203 23.8359 176.148 26.5547 176.133 29.4141C176.133 31.0078 176.031 32.5781 175.828 34.125C175.641 35.6719 175.328 37.1328 174.891 38.5078C174.469 39.8984 173.914 41.1797 173.227 42.3516C172.555 43.5391 171.727 44.5547 170.742 45.3984C169.773 46.2578 168.641 46.9297 167.344 47.4141C166.062 47.8984 164.609 48.1406 162.984 48.1406C161.469 48.1406 160.156 47.9844 159.047 47.6719C157.938 47.3594 157.016 46.9141 156.281 46.3359C155.562 45.7734 155.023 45.0938 154.664 44.2969C154.32 43.5 154.148 42.625 154.148 41.6719C154.148 40.7188 154.312 39.8516 154.641 39.0703C154.969 38.3047 155.398 37.6562 155.93 37.125C156.461 36.5938 157.062 36.1875 157.734 35.9062C158.406 35.6094 159.086 35.4609 159.773 35.4609C160.648 35.4609 161.477 35.7109 162.258 36.2109C163.039 36.7109 163.633 37.5 164.039 38.5781C163.945 38.5 163.836 38.4453 163.711 38.4141C163.602 38.3984 163.484 38.3906 163.359 38.3906C163.188 38.3906 163.008 38.4297 162.82 38.5078C162.648 38.5859 162.492 38.6953 162.352 38.8359C162.211 38.9766 162.094 39.1328 162 39.3047C161.922 39.4922 161.883 39.6875 161.883 39.8906C161.883 40.125 161.93 40.3203 162.023 40.4766C162.117 40.6484 162.227 40.7812 162.352 40.875C162.492 40.9688 162.641 41.0312 162.797 41.0625C162.969 41.1094 163.125 41.1328 163.266 41.1328C163.484 41.1328 163.758 41.0859 164.086 40.9922C164.414 40.8984 164.75 40.7031 165.094 40.4062C165.453 40.1094 165.805 39.6953 166.148 39.1641C166.508 38.6328 166.82 37.9219 167.086 37.0312C167.367 36.1562 167.586 35.0859 167.742 33.8203C167.914 32.5547 167.992 31.0391 167.977 29.2734C167.57 30.3672 167.141 31.2578 166.688 31.9453C166.25 32.6172 165.781 33.1406 165.281 33.5156C164.797 33.8906 164.281 34.1406 163.734 34.2656C163.203 34.3906 162.633 34.4531 162.023 34.4531C161.258 34.4531 160.453 34.3203 159.609 34.0547C158.781 33.7734 158.016 33.2891 157.312 32.6016C156.625 31.8984 156.055 30.9453 155.602 29.7422C155.148 28.5391 154.922 27.0078 154.922 25.1484C154.922 24.8984 154.922 24.7266 154.922 24.6328C154.938 24.5234 154.945 24.4453 154.945 24.3984C154.945 24.3359 154.953 24.2656 154.969 24.1875C154.984 24.1094 154.992 23.9609 154.992 23.7422C154.992 23.5078 154.992 23.1797 154.992 22.7578C155.008 22.3359 155.016 21.7422 155.016 20.9766C155.016 20.0859 155 19.0781 154.969 17.9531C154.938 16.8281 154.867 15.7266 154.758 14.6484C154.664 13.5703 154.523 12.5938 154.336 11.7188C154.148 10.8281 153.906 10.1719 153.609 9.75C154.875 9.96875 156.062 10.1172 157.172 10.1953C158.297 10.2734 159.32 10.3125 160.242 10.3125C160.852 10.3125 161.398 10.3047 161.883 10.2891C162.383 10.2578 162.812 10.2266 163.172 10.1953C163.578 10.1641 163.945 10.125 164.273 10.0781C164.148 10.3437 164.008 10.8516 163.852 11.6016C163.711 12.3516 163.57 13.25 163.43 14.2969C163.289 15.3438 163.172 16.4922 163.078 17.7422C162.984 18.9766 162.938 20.2266 162.938 21.4922C162.938 22.4453 163.008 23.2578 163.148 23.9297C163.289 24.6016 163.477 25.1562 163.711 25.5938C163.961 26.0156 164.242 26.3281 164.555 26.5312C164.883 26.7344 165.234 26.8359 165.609 26.8359C166.203 26.8359 166.672 26.5938 167.016 26.1094C167.375 25.625 167.68 25.0156 167.93 24.2812C167.898 23.3125 167.844 22.1797 167.766 20.8828C167.688 19.5859 167.578 18.2344 167.438 16.8281C167.312 15.4219 167.141 14.0078 166.922 12.5859C166.719 11.1484 166.461 9.8125 166.148 8.57812C166.633 8.75 167.211 8.90625 167.883 9.04688C168.461 9.17187 169.164 9.28125 169.992 9.375C170.82 9.45312 171.797 9.49219 172.922 9.49219C174.25 9.49219 175.75 9.39844 177.422 9.21094ZM5.25 48.1406L2.97656 39.8672H4.19531L5.22656 43.998L5.8125 46.7344H5.93555L7.69922 39.8672H9.01172L10.7754 46.7344H10.8984L11.4844 43.998L12.5156 39.8672H13.7344L11.4609 48.1406H10.2832L9.10547 43.834L8.38477 40.998H8.32617L7.60547 43.834L6.42773 48.1406H5.25ZM14.8066 48.1406V40.1895H15.9023V43.125C16.1484 42.8672 16.4258 42.6621 16.7344 42.5098C17.043 42.3574 17.3633 42.2812 17.6953 42.2812C18.3945 42.2812 18.9102 42.4746 19.2422 42.8613C19.5781 43.248 19.7461 43.7891 19.7461 44.4844V48.1406H18.6562V44.543C18.6562 44.3164 18.625 44.0938 18.5625 43.875C18.5 43.6562 18.3809 43.4746 18.2051 43.3301C18.0332 43.1816 17.7773 43.1074 17.4375 43.1074C17.082 43.1074 16.8066 43.1758 16.6113 43.3125C16.416 43.4453 16.2695 43.5879 16.1719 43.7402C16.0703 43.9043 16.002 44.1035 15.9668 44.3379C15.9316 44.5723 15.9141 44.8125 15.9141 45.0586V48.1406H14.8066ZM23.9355 48.2402C23.4355 48.2402 22.9766 48.1348 22.5586 47.9238C22.1445 47.709 21.8125 47.3828 21.5625 46.9453C21.3164 46.5039 21.1934 45.9453 21.1934 45.2695C21.1934 44.7422 21.2832 44.252 21.4629 43.7988C21.6465 43.3457 21.9277 42.9805 22.3066 42.7031C22.6855 42.4219 23.1719 42.2812 23.7656 42.2812C24.3281 42.2812 24.7871 42.4043 25.1426 42.6504C25.502 42.8926 25.7656 43.2168 25.9336 43.623C26.1016 44.0254 26.1855 44.4688 26.1855 44.9531V45.4277H22.2832V45.5332C22.2832 46.1973 22.4512 46.6816 22.7871 46.9863C23.127 47.2871 23.5371 47.4375 24.0176 47.4375C24.5645 47.4375 25.125 47.2676 25.6992 46.9277L26.0332 47.6777C25.3301 48.0527 24.6309 48.2402 23.9355 48.2402ZM22.3184 44.6777H25.0371C25.0293 44.3965 24.9863 44.1367 24.9082 43.8984C24.8301 43.6602 24.6992 43.4688 24.5156 43.3242C24.332 43.1797 24.0742 43.1074 23.7422 43.1074C23.3594 43.1074 23.0254 43.2324 22.7402 43.4824C22.459 43.7324 22.3184 44.1309 22.3184 44.6777ZM27.6621 48.1406V43.8516C27.6621 43.7852 27.6582 43.6582 27.6504 43.4707C27.6465 43.2793 27.6406 43.0781 27.6328 42.8672C27.6289 42.6562 27.627 42.4922 27.627 42.375H28.6523L28.7051 43.3711C28.959 42.9766 29.25 42.6973 29.5781 42.5332C29.9102 42.3652 30.2012 42.2812 30.4512 42.2812C30.6309 42.2812 30.8027 42.293 30.9668 42.3164L30.8965 43.3477C30.791 43.3281 30.6914 43.3125 30.5977 43.3008C30.5039 43.2891 30.4082 43.2832 30.3105 43.2832C29.7637 43.2832 29.3691 43.4512 29.127 43.7871C28.8887 44.1191 28.7695 44.5469 28.7695 45.0703V48.1406H27.6621ZM34.3535 48.2402C33.8535 48.2402 33.3945 48.1348 32.9766 47.9238C32.5625 47.709 32.2305 47.3828 31.9805 46.9453C31.7344 46.5039 31.6113 45.9453 31.6113 45.2695C31.6113 44.7422 31.7012 44.252 31.8809 43.7988C32.0645 43.3457 32.3457 42.9805 32.7246 42.7031C33.1035 42.4219 33.5898 42.2812 34.1836 42.2812C34.7461 42.2812 35.2051 42.4043 35.5605 42.6504C35.9199 42.8926 36.1836 43.2168 36.3516 43.623C36.5195 44.0254 36.6035 44.4688 36.6035 44.9531V45.4277H32.7012V45.5332C32.7012 46.1973 32.8691 46.6816 33.2051 46.9863C33.5449 47.2871 33.9551 47.4375 34.4355 47.4375C34.9824 47.4375 35.543 47.2676 36.1172 46.9277L36.4512 47.6777C35.748 48.0527 35.0488 48.2402 34.3535 48.2402ZM32.7363 44.6777H35.4551C35.4473 44.3965 35.4043 44.1367 35.3262 43.8984C35.248 43.6602 35.1172 43.4688 34.9336 43.3242C34.75 43.1797 34.4922 43.1074 34.1602 43.1074C33.7773 43.1074 33.4434 43.2324 33.1582 43.4824C32.877 43.7324 32.7363 44.1309 32.7363 44.6777ZM41.3438 48.1406V39.8672H43.6992C44.4961 39.8672 45.2012 40.0098 45.8145 40.2949C46.4316 40.5762 46.9141 41.0215 47.2617 41.6309C47.6094 42.2363 47.7832 43.0273 47.7832 44.0039C47.7832 44.7891 47.6738 45.4473 47.4551 45.9785C47.2402 46.5059 46.9395 46.9297 46.5527 47.25C46.1699 47.5664 45.7227 47.7949 45.2109 47.9355C44.6992 48.0723 44.1484 48.1406 43.5586 48.1406H41.3438ZM42.4863 47.1445H43.4766C44.5547 47.1289 45.3379 46.877 45.8262 46.3887C46.3145 45.8965 46.5586 45.1152 46.5586 44.0449C46.5586 43.0527 46.3418 42.2754 45.9082 41.7129C45.4746 41.1465 44.7441 40.8633 43.7168 40.8633H42.4863V47.1445ZM51.7559 48.2402C51.2559 48.2402 50.7969 48.1348 50.3789 47.9238C49.9648 47.709 49.6328 47.3828 49.3828 46.9453C49.1367 46.5039 49.0137 45.9453 49.0137 45.2695C49.0137 44.7422 49.1035 44.252 49.2832 43.7988C49.4668 43.3457 49.748 42.9805 50.127 42.7031C50.5059 42.4219 50.9922 42.2812 51.5859 42.2812C52.1484 42.2812 52.6074 42.4043 52.9629 42.6504C53.3223 42.8926 53.5859 43.2168 53.7539 43.623C53.9219 44.0254 54.0059 44.4688 54.0059 44.9531V45.4277H50.1035V45.5332C50.1035 46.1973 50.2715 46.6816 50.6074 46.9863C50.9473 47.2871 51.3574 47.4375 51.8379 47.4375C52.3848 47.4375 52.9453 47.2676 53.5195 46.9277L53.8535 47.6777C53.1504 48.0527 52.4512 48.2402 51.7559 48.2402ZM50.1387 44.6777H52.8574C52.8496 44.3965 52.8066 44.1367 52.7285 43.8984C52.6504 43.6602 52.5195 43.4688 52.3359 43.3242C52.1523 43.1797 51.8945 43.1074 51.5625 43.1074C51.1797 43.1074 50.8457 43.2324 50.5605 43.4824C50.2793 43.7324 50.1387 44.1309 50.1387 44.6777ZM55.7402 48.1406V43.2188H55.0254V42.375H56.7656L56.8242 43.1133C57.0625 42.8438 57.3164 42.6387 57.5859 42.498C57.8555 42.3535 58.2031 42.2812 58.6289 42.2812C58.8438 42.2812 59.0703 42.3125 59.3086 42.375C59.5469 42.4375 59.7695 42.5449 59.9766 42.6973C60.1875 42.8496 60.3594 43.0586 60.4922 43.3242C60.625 43.5898 60.6914 43.9258 60.6914 44.332V48.1406H59.6016V44.4199C59.6016 43.9941 59.4941 43.6699 59.2793 43.4473C59.0684 43.2207 58.7617 43.1074 58.3594 43.1074C57.8867 43.1074 57.5156 43.2637 57.2461 43.5762C56.9805 43.8848 56.8477 44.3418 56.8477 44.9473V48.1406H55.7402ZM64.3242 48.2402C63.8438 48.2402 63.4629 48.1367 63.1816 47.9297C62.9043 47.7227 62.7656 47.3184 62.7656 46.7168V43.2129H61.8457V42.375H62.7949L62.9883 40.9922L63.873 40.8164V42.375H65.2676V43.2129H63.873V46.5996C63.873 46.8184 63.916 47.0117 64.002 47.1797C64.0918 47.3438 64.291 47.4258 64.5996 47.4258C64.709 47.4258 64.8281 47.418 64.957 47.4023C65.0898 47.3867 65.2012 47.3691 65.291 47.3496V48.1289C65.1699 48.1523 65.0215 48.1758 64.8457 48.1992C64.6738 48.2266 64.5 48.2402 64.3242 48.2402ZM67.6582 42.375V48.1406H66.5684V43.2188H65.6777V42.375H67.6582ZM66.5625 41.127V39.8789H67.6758V41.127H66.5625ZM71.0859 48.2402C70.3477 48.2402 69.6719 48.0469 69.0586 47.6602L69.4043 46.8926C69.6387 47.0723 69.9141 47.207 70.2305 47.2969C70.5508 47.3828 70.8594 47.4258 71.1562 47.4258C71.4766 47.4258 71.7539 47.3574 71.9883 47.2207C72.2266 47.084 72.3457 46.8711 72.3457 46.582C72.3457 46.3672 72.2578 46.1973 72.082 46.0723C71.9102 45.9434 71.5723 45.7852 71.0684 45.5977C70.6973 45.4648 70.3711 45.332 70.0898 45.1992C69.8125 45.0664 69.5957 44.8984 69.4395 44.6953C69.2871 44.4922 69.2109 44.2207 69.2109 43.8809C69.2109 43.5176 69.3105 43.2188 69.5098 42.9844C69.7129 42.7461 69.9766 42.5703 70.3008 42.457C70.625 42.3398 70.9727 42.2812 71.3438 42.2812C71.6992 42.2812 72.0527 42.332 72.4043 42.4336C72.7559 42.5352 73.0781 42.6875 73.3711 42.8906L73.0137 43.6113C72.7598 43.4473 72.4824 43.3223 72.1816 43.2363C71.8809 43.1504 71.6094 43.1074 71.3672 43.1074C71.0625 43.1074 70.8008 43.166 70.582 43.2832C70.3672 43.4004 70.2598 43.5723 70.2598 43.7988C70.2598 44.0098 70.3633 44.1875 70.5703 44.332C70.7812 44.4727 71.082 44.6074 71.4727 44.7363C71.9492 44.9043 72.3301 45.0684 72.6152 45.2285C72.9043 45.3887 73.1133 45.5684 73.2422 45.7676C73.3711 45.9668 73.4355 46.2109 73.4355 46.5C73.4355 46.9062 73.3223 47.2383 73.0957 47.4961C72.8691 47.75 72.5762 47.9375 72.2168 48.0586C71.8574 48.1797 71.4805 48.2402 71.0859 48.2402ZM76.7461 48.2402C76.2656 48.2402 75.8848 48.1367 75.6035 47.9297C75.3262 47.7227 75.1875 47.3184 75.1875 46.7168V43.2129H74.2676V42.375H75.2168L75.4102 40.9922L76.2949 40.8164V42.375H77.6895V43.2129H76.2949V46.5996C76.2949 46.8184 76.3379 47.0117 76.4238 47.1797C76.5137 47.3438 76.7129 47.4258 77.0215 47.4258C77.1309 47.4258 77.25 47.418 77.3789 47.4023C77.5117 47.3867 77.623 47.3691 77.7129 47.3496V48.1289C77.5918 48.1523 77.4434 48.1758 77.2676 48.1992C77.0957 48.2266 76.9219 48.2402 76.7461 48.2402ZM80.5898 48.2402C79.8516 48.2402 79.1758 48.0469 78.5625 47.6602L78.9082 46.8926C79.1426 47.0723 79.418 47.207 79.7344 47.2969C80.0547 47.3828 80.3633 47.4258 80.6602 47.4258C80.9805 47.4258 81.2578 47.3574 81.4922 47.2207C81.7305 47.084 81.8496 46.8711 81.8496 46.582C81.8496 46.3672 81.7617 46.1973 81.5859 46.0723C81.4141 45.9434 81.0762 45.7852 80.5723 45.5977C80.2012 45.4648 79.875 45.332 79.5938 45.1992C79.3164 45.0664 79.0996 44.8984 78.9434 44.6953C78.791 44.4922 78.7148 44.2207 78.7148 43.8809C78.7148 43.5176 78.8145 43.2188 79.0137 42.9844C79.2168 42.7461 79.4805 42.5703 79.8047 42.457C80.1289 42.3398 80.4766 42.2812 80.8477 42.2812C81.2031 42.2812 81.5566 42.332 81.9082 42.4336C82.2598 42.5352 82.582 42.6875 82.875 42.8906L82.5176 43.6113C82.2637 43.4473 81.9863 43.3223 81.6855 43.2363C81.3848 43.1504 81.1133 43.1074 80.8711 43.1074C80.5664 43.1074 80.3047 43.166 80.0859 43.2832C79.8711 43.4004 79.7637 43.5723 79.7637 43.7988C79.7637 44.0098 79.8672 44.1875 80.0742 44.332C80.2852 44.4727 80.5859 44.6074 80.9766 44.7363C81.4531 44.9043 81.834 45.0684 82.1191 45.2285C82.4082 45.3887 82.6172 45.5684 82.7461 45.7676C82.875 45.9668 82.9395 46.2109 82.9395 46.5C82.9395 46.9062 82.8262 47.2383 82.5996 47.4961C82.373 47.75 82.0801 47.9375 81.7207 48.0586C81.3613 48.1797 80.9844 48.2402 80.5898 48.2402ZM87.6797 48.1406V39.8672H90.1699C91.0996 39.8672 91.8262 40.0234 92.3496 40.3359C92.877 40.6445 93.1406 41.1875 93.1406 41.9648C93.1406 42.293 93.0742 42.5801 92.9414 42.8262C92.8125 43.0684 92.6445 43.2695 92.4375 43.4297C92.2305 43.5898 92.0156 43.7148 91.793 43.8047C92.0508 43.8828 92.3008 43.998 92.543 44.1504C92.7852 44.2988 92.9844 44.5059 93.1406 44.7715C93.3008 45.0371 93.3809 45.3809 93.3809 45.8027C93.3809 46.252 93.2969 46.6289 93.1289 46.9336C92.9648 47.2344 92.7402 47.4727 92.4551 47.6484C92.1699 47.8242 91.8457 47.9512 91.4824 48.0293C91.123 48.1035 90.75 48.1406 90.3633 48.1406H87.6797ZM88.834 43.3301H90.2988C90.5566 43.3301 90.8125 43.3008 91.0664 43.2422C91.3203 43.1797 91.5312 43.0586 91.6992 42.8789C91.8672 42.6953 91.9512 42.4238 91.9512 42.0645C91.9512 41.7051 91.8711 41.4414 91.7109 41.2734C91.5508 41.1016 91.3418 40.9902 91.084 40.9395C90.8301 40.8887 90.5566 40.8633 90.2637 40.8633H88.834V43.3301ZM88.8281 47.1445H90.5391C91.082 47.1289 91.4902 47.0078 91.7637 46.7812C92.041 46.5547 92.1797 46.207 92.1797 45.7383C92.1797 45.3398 92.0488 45.0098 91.7871 44.748C91.5293 44.4824 91.1113 44.3496 90.5332 44.3496H88.8281V47.1445ZM97.0723 48.2402C96.3301 48.2402 95.7773 48.0566 95.4141 47.6895C95.0547 47.3184 94.875 46.7812 94.875 46.0781V42.375H95.9648V46.084C95.9648 46.4512 96.0469 46.7676 96.2109 47.0332C96.375 47.2949 96.6816 47.4258 97.1309 47.4258C97.5449 47.4258 97.8633 47.3418 98.0859 47.1738C98.3125 47.0059 98.4707 46.7793 98.5605 46.4941C98.6504 46.2051 98.6953 45.8809 98.6953 45.5215V42.375H99.7852V46.0312C99.7852 46.5938 99.7949 47.0332 99.8145 47.3496C99.8379 47.666 99.8613 47.9297 99.8848 48.1406H98.9648C98.9414 48.0625 98.9199 47.9512 98.9004 47.8066C98.8809 47.6582 98.8613 47.4551 98.8418 47.1973C98.6934 47.5332 98.4609 47.791 98.1445 47.9707C97.8281 48.1504 97.4707 48.2402 97.0723 48.2402ZM102.486 50.291C102.408 50.291 102.32 50.2832 102.223 50.2676C102.129 50.252 102.006 50.2285 101.854 50.1973V49.3711C101.979 49.4023 102.074 49.4238 102.141 49.4355C102.207 49.4473 102.262 49.4531 102.305 49.4531C102.527 49.4531 102.697 49.3359 102.814 49.1016C102.936 48.8711 103.039 48.6074 103.125 48.3105L103.184 48.1113L100.816 42.375H102.023L103.055 45.0996L103.758 47.0391L105.475 42.375H106.658L104.092 48.6328C103.998 48.8672 103.881 49.1133 103.74 49.3711C103.604 49.6289 103.434 49.8457 103.23 50.0215C103.027 50.2012 102.779 50.291 102.486 50.291ZM113.062 48.2695C112.219 48.2695 111.562 48.0527 111.094 47.6191C110.629 47.1855 110.396 46.623 110.396 45.9316C110.396 45.5293 110.471 45.1797 110.619 44.8828C110.768 44.5859 110.967 44.3203 111.217 44.0859C111.467 43.8516 111.746 43.627 112.055 43.4121C111.855 43.1934 111.656 42.9277 111.457 42.6152C111.262 42.3027 111.164 41.9277 111.164 41.4902C111.164 40.9277 111.352 40.4805 111.727 40.1484C112.102 39.8164 112.637 39.6504 113.332 39.6504C113.719 39.6504 114.072 39.7129 114.393 39.8379C114.713 39.9629 114.969 40.1562 115.16 40.418C115.352 40.6758 115.447 41.0039 115.447 41.4023C115.447 41.7539 115.361 42.0684 115.189 42.3457C115.021 42.623 114.814 42.8652 114.568 43.0723C114.322 43.2754 114.084 43.4512 113.854 43.5996L115.775 45.5566C115.971 45.2754 116.117 44.9727 116.215 44.6484C116.316 44.3242 116.387 43.9023 116.426 43.3828H117.557C117.502 44.0352 117.391 44.582 117.223 45.0234C117.059 45.4648 116.816 45.8887 116.496 46.2949L118.289 48.1348H116.771L115.77 47.1387C115.379 47.4902 114.969 47.7676 114.539 47.9707C114.113 48.1699 113.621 48.2695 113.062 48.2695ZM113.127 42.8555C113.404 42.6758 113.664 42.4668 113.906 42.2285C114.148 41.9902 114.27 41.7207 114.27 41.4199C114.27 41.2207 114.191 41.0371 114.035 40.8691C113.883 40.6973 113.648 40.6113 113.332 40.6113C113.035 40.6113 112.795 40.6934 112.611 40.8574C112.428 41.0176 112.336 41.2188 112.336 41.4609C112.336 41.6836 112.402 41.9082 112.535 42.1348C112.672 42.3574 112.869 42.5977 113.127 42.8555ZM113.156 47.2559C113.613 47.2559 113.992 47.166 114.293 46.9863C114.594 46.8027 114.842 46.6152 115.037 46.4238C114.787 46.1855 114.537 45.9414 114.287 45.6914C114.041 45.4414 113.801 45.1934 113.566 44.9473L112.787 44.1328C112.365 44.4297 112.059 44.7129 111.867 44.9824C111.68 45.252 111.586 45.5566 111.586 45.8965C111.586 46.2129 111.662 46.4707 111.814 46.6699C111.971 46.8691 112.17 47.0176 112.412 47.1152C112.654 47.209 112.902 47.2559 113.156 47.2559ZM122.537 48.1406V39.8672H125.074C125.434 39.8672 125.783 39.9043 126.123 39.9785C126.463 40.0488 126.77 40.166 127.043 40.3301C127.316 40.4941 127.533 40.7168 127.693 40.998C127.857 41.2754 127.939 41.6191 127.939 42.0293C127.939 42.5605 127.803 42.9922 127.529 43.3242C127.26 43.6523 126.891 43.9062 126.422 44.0859C126.797 44.1758 127.082 44.2969 127.277 44.4492C127.473 44.5977 127.613 44.7832 127.699 45.0059C127.785 45.2246 127.848 45.4863 127.887 45.791C127.926 46.0918 127.975 46.4375 128.033 46.8281C128.096 47.2148 128.201 47.6523 128.35 48.1406H127.119C126.998 47.5 126.908 46.9551 126.85 46.5059C126.795 46.0527 126.721 45.6855 126.627 45.4043C126.533 45.1191 126.375 44.9121 126.152 44.7832C125.93 44.6504 125.592 44.584 125.139 44.584H123.686V48.1406H122.537ZM123.68 43.7168H125.039C125.516 43.7168 125.918 43.6016 126.246 43.3711C126.578 43.1406 126.744 42.7402 126.744 42.1699C126.744 41.8652 126.688 41.625 126.574 41.4492C126.465 41.2734 126.318 41.1445 126.135 41.0625C125.951 40.9766 125.75 40.9219 125.531 40.8984C125.312 40.875 125.098 40.8633 124.887 40.8633H123.68V43.7168ZM132.158 48.2402C131.658 48.2402 131.199 48.1348 130.781 47.9238C130.367 47.709 130.035 47.3828 129.785 46.9453C129.539 46.5039 129.416 45.9453 129.416 45.2695C129.416 44.7422 129.506 44.252 129.686 43.7988C129.869 43.3457 130.15 42.9805 130.529 42.7031C130.908 42.4219 131.395 42.2812 131.988 42.2812C132.551 42.2812 133.01 42.4043 133.365 42.6504C133.725 42.8926 133.988 43.2168 134.156 43.623C134.324 44.0254 134.408 44.4688 134.408 44.9531V45.4277H130.506V45.5332C130.506 46.1973 130.674 46.6816 131.01 46.9863C131.35 47.2871 131.76 47.4375 132.24 47.4375C132.787 47.4375 133.348 47.2676 133.922 46.9277L134.256 47.6777C133.553 48.0527 132.854 48.2402 132.158 48.2402ZM130.541 44.6777H133.26C133.252 44.3965 133.209 44.1367 133.131 43.8984C133.053 43.6602 132.922 43.4688 132.738 43.3242C132.555 43.1797 132.297 43.1074 131.965 43.1074C131.582 43.1074 131.248 43.2324 130.963 43.4824C130.682 43.7324 130.541 44.1309 130.541 44.6777ZM136.143 48.1406V43.2188H135.428V42.375H137.168L137.227 43.1133C137.465 42.8438 137.719 42.6387 137.988 42.498C138.258 42.3535 138.605 42.2812 139.031 42.2812C139.246 42.2812 139.473 42.3125 139.711 42.375C139.949 42.4375 140.172 42.5449 140.379 42.6973C140.59 42.8496 140.762 43.0586 140.895 43.3242C141.027 43.5898 141.094 43.9258 141.094 44.332V48.1406H140.004V44.4199C140.004 43.9941 139.896 43.6699 139.682 43.4473C139.471 43.2207 139.164 43.1074 138.762 43.1074C138.289 43.1074 137.918 43.2637 137.648 43.5762C137.383 43.8848 137.25 44.3418 137.25 44.9473V48.1406H136.143ZM144.727 48.2402C144.246 48.2402 143.865 48.1367 143.584 47.9297C143.307 47.7227 143.168 47.3184 143.168 46.7168V43.2129H142.248V42.375H143.197L143.391 40.9922L144.275 40.8164V42.375H145.67V43.2129H144.275V46.5996C144.275 46.8184 144.318 47.0117 144.404 47.1797C144.494 47.3438 144.693 47.4258 145.002 47.4258C145.111 47.4258 145.23 47.418 145.359 47.4023C145.492 47.3867 145.604 47.3691 145.693 47.3496V48.1289C145.572 48.1523 145.424 48.1758 145.248 48.1992C145.076 48.2266 144.902 48.2402 144.727 48.2402Z" fill="white"/>
</svg>
